<svg id="Layer_1" enable-background="new 0 0 512 512" height="512" viewBox="0 0 512 512" width="512" xmlns="http://www.w3.org/2000/svg"><g><path d="m434.807 434.468c41.046-43.808 66.192-102.697 66.192-167.467 0-135.309-109.689-244.999-244.999-244.999s-244.999 109.69-244.999 244.999c0 64.77 25.146 123.658 66.192 167.466z" fill="#ff7bc0"/><path d="m230.575 67.291c-41.211 20.65-71.479 85.767-71.479 126.045s30.268 74.199 71.479 84.417z" fill="#142766"/><path d="m281.425 66.743v211.281c41.779-9.878 72.593-44.048 72.593-84.688s-30.814-106.571-72.593-126.593z" fill="#2a428c"/><path d="m343.226 233.39c-4.609-4.807-12.686-11.882-19.388-10.683-10.007 1.79-9.677-7.68-9.677-7.68l-30.316 14.223v31.167c0 3.076 4.503 10.735 7.079 14.864 22.667-7.679 41.304-22.721 52.302-41.891z" fill="#142766"/><path d="m256 512c71.031 0 134.989-30.239 179.737-78.532.476-39.446-2.928-77.805-13.641-99.232-12.936-25.873-35.642-33.098-45.987-35.085 0 0-30.382-5.546-54.797-16.448-4.37 49.059-31.687 86.86-64.754 86.86-33.176 0-60.561-38.05-64.794-87.344-24.589 11.223-55.873 16.932-55.873 16.932-10.345 1.987-33.05 9.212-45.987 35.085-10.713 21.427-14.117 59.786-13.641 99.232 44.748 48.293 108.706 78.532 179.737 78.532z" fill="#fff1de"/><path d="m117.346 389.084c0-53.485 73.1-52.799 84.48-52.369.795.03 1.585.123 2.351.338 1.761.495 3.278.624 4.591.499-9.043-14.925-15.18-34.079-17.005-55.334-24.589 11.223-55.873 16.932-55.873 16.932-10.345 1.987-33.05 9.212-45.987 35.085-10.713 21.427-14.117 59.786-13.641 99.232 12.32 13.296 26.104 25.214 41.083 35.519v-79.902z" fill="#f7d5b0"/><path d="m256.558 348.544c28.868 0 53.553-27.457 63.684-66.323-15.921-7.266-29.037-16.841-29.037-28.677 0-4.893 0-3.427 0-6.594-8.53 7.626-23.158 17.341-35.204 17.633-12.047-.292-26.675-10.007-35.205-17.633v6.594c0 11.589-12.577 21.008-28.046 28.216 10.056 39.11 34.825 66.784 63.808 66.784z" fill="#ffba87"/><path d="m256 264.582c-12.047-.291-26.674-10.007-35.205-17.633v6.594c0 11.589-12.577 21.008-28.046 28.216 5.008 19.473 13.664 36.107 24.67 47.906.869-1.001 1.936-1.834 3.125-2.464 30.024-15.89 35.221-46.537 35.758-62.642-.1.005-.202.021-.302.023z" fill="#ffa270"/><path d="m256.557 347.63c-28.677 0-53.176-27.465-63.036-66.233-1.405.666-2.834 1.315-4.283 1.943 3.534 52.436 32.324 93.324 67.319 93.324 34.891 0 63.607-40.647 67.281-92.858-1.476-.628-2.934-1.276-4.369-1.942-9.937 38.522-34.35 65.766-62.912 65.766z" fill="#ffc839"/><path d="m193.521 281.397c-1.405.666-2.834 1.315-4.283 1.943 1.354 20.097 6.422 38.493 14.123 53.546.273.048.547.092.815.167 7.209 2.027 10.398-2.004 11.744-5.052.493-1.117 1.208-2.1 2.069-2.942-10.944-11.712-19.537-28.273-24.468-47.662z" fill="#ff9d33"/><path d="m188.868 136.794c-3.45 4.682-8.048 9.357-14.284 13.909-1.684 1.229-3.681 1.698-5.592 1.518.998 3.846 2.616 7.535 3.738 10.518.847 2.254 1.394 4.534 1.641 6.818.537 4.963 3.228 12.226 14.385 12.055-.169-.715-.341-1.419-.506-2.146-.001 0-4.22-26.704.618-42.672z" fill="#ffa270"/><path d="m338.531 150.703c-6.239-4.554-10.839-9.231-14.289-13.915 4.84 15.967.621 42.678.621 42.678-.165.727-.337 1.431-.506 2.146 11.157.171 13.848-7.092 14.385-12.055.247-2.284.794-4.564 1.641-6.818 1.122-2.983 2.74-6.672 3.738-10.518-1.91.179-3.907-.29-5.59-1.518z" fill="#ffa270"/><path d="m309.491 92.119c-2.111-3.072-4.733-5.844-8.008-8.024-7.411-4.935-17.05-6.177-28.744-3.75-4.79 1.911-8.784 4.557-11.603 6.759-2.668 2.084-6.49 2.084-9.159 0-2.817-2.2-6.808-4.845-11.595-6.756-11.699-2.43-21.341-1.189-28.754 3.746-3.27 2.178-5.891 4.947-8.001 8.015-4.862 11.776-2.469 28.877-15.587 45.78-3.44 13.007-1.928 32.445-.335 41.701 4.579 20.213 11.213 37.838 19.714 52.386 8.63 14.769 21.699 26.255 37.794 33.219 7.209 3.118 15.475 3.118 22.683 0 16.095-6.964 29.164-18.45 37.794-33.219 8.499-14.544 15.133-32.17 19.722-52.422 1.526-9.702 3.122-28.714-.282-41.588-13.179-16.925-10.775-34.054-15.639-45.847z" fill="#ffd19e"/><path d="m250.84 228.935c-9.228-15.792-16.428-34.923-21.399-56.864-.966-5.613-1.904-14.674-1.894-24.042.012-10.067 2.439-20.04 7.282-28.865 7.308-13.317 7.522-26.296 10.157-36.645-1.434-.777-2.968-1.519-4.604-2.171-11.699-2.43-21.341-1.189-28.754 3.746-3.27 2.178-5.891 4.947-8.001 8.015-4.862 11.776-2.469 28.877-15.587 45.78-3.44 13.007-1.928 32.445-.335 41.701 4.579 20.213 11.213 37.837 19.714 52.386 8.63 14.769 21.698 26.255 37.794 33.219 7.209 3.118 15.475 3.118 22.683 0 4.241-1.835 8.265-3.992 12.06-6.433-12.045-7.483-21.981-17.618-29.116-29.827z" fill="#ffba87"/><path d="m256.557 6.039c-50.6-28.489-102.05 51.025-102.05 88.444 0 25.179 7.316 45.352 12.103 55.855 2.017 4.425 7.627 5.798 11.5 2.857 35.037-26.613 16.143-57.463 36.919-68.917 15.781-8.7 30.189-.072 37.147 5.581 2.554 2.075 6.211 2.075 8.765 0 6.957-5.653 21.366-14.281 37.147-5.581 20.776 11.454 1.882 42.305 36.919 68.917 3.873 2.941 9.483 1.568 11.5-2.857 4.786-10.503 12.103-30.676 12.103-55.855-.002-37.419-51.453-116.933-102.053-88.444z" fill="#2a428c"/><path d="m276.846 31.584c0-16.199 15.53-22.303 26.864-24.606-14.661-8.099-30.949-10.062-47.152-.939-50.6-28.489-102.05 51.025-102.05 88.444 0 25.179 7.316 45.352 12.103 55.855 2.017 4.425 7.627 5.798 11.5 2.857 35.037-26.613 16.143-57.463 36.919-68.917 15.781-8.7 30.189-.072 37.146 5.581 2.554 2.075 6.211 2.075 8.765 0 5.266-4.279 14.803-10.256 25.972-9.139-11.14-9.949-10.066-23.636-10.066-23.636s-.001 0-.001-25.5z" fill="#142766"/><path d="m374.791 298.858c-2.378-.299-4.582-1.338-6.418-2.88-17.796-14.939-40.426-13.731-40.426-13.731-1.895-.036-3.691.836-4.835 2.347l-14.62 19.307c-34.476 38.795-73.864 72.927-117.168 101.534l-36.308 23.985c-7.784 6.76-12.255 16.564-12.255 26.874v28.005c23.608 12.328 49.471 20.926 76.814 25.002 94.143-88.084 146.452-190.503 156.069-210.326-.29-.041-.588-.084-.853-.117z" fill="#ff4155"/><path d="m313.833 387.206c-36.162 1.849-44.652-25.393-46.6-36.314-.233-1.309-.763-2.519-1.511-3.572-23.207 21.28-48.074 40.724-74.399 58.115l-36.308 23.985c-7.784 6.76-12.254 16.564-12.254 26.874v28.005c23.608 12.328 49.471 20.926 76.814 25.002 42.353-39.628 76.235-82.153 101.576-118.757-1.716-2.177-4.423-3.486-7.318-3.338z" fill="#e80054"/><path d="m408.909 313.453c-13.129-10.785-27.573-13.773-34.119-14.595-.487-.061-.962-.173-1.432-.294-9.058 18.742-61.32 121.765-155.915 210.407 12.562 1.986 25.437 3.029 38.557 3.029 19.616 0 38.688-2.32 56.972-6.674l98.459-177.066c2.735-4.92 1.694-11.077-2.522-14.807z" fill="#e80054"/><path d="m217.443 508.971c12.562 1.986 25.437 3.029 38.557 3.029 19.616 0 38.688-2.32 56.972-6.674l47.522-85.462c-1.641-1.904-4.079-3.107-6.796-3.108-21.359-.005-28.562-14.143-30.982-23.112-.502-1.86-1.596-3.435-3.035-4.566-25.379 36.829-59.483 79.829-102.238 119.893z" fill="#cc0053"/><g fill="#ffc839"><path d="m341.561 182.793c0 3.861-3.13 6.99-6.99 6.99-3.861 0-6.991-3.13-6.991-6.99 0-3.861 3.13-6.99 6.991-6.99 3.86 0 6.99 3.13 6.99 6.99z"/><path d="m343.736 197.913c0 5.062-4.103 9.165-9.165 9.165s-9.165-4.103-9.165-9.165 4.103-9.165 9.165-9.165c5.061 0 9.165 4.103 9.165 9.165z"/><path d="m346.933 226.531c0 6.827-5.535 12.362-12.362 12.362-6.828 0-12.362-5.535-12.362-12.362s5.534-20.009 12.362-20.009c6.827 0 12.362 13.182 12.362 20.009z"/><circle cx="256.557" cy="63.036" r="8.622"/><ellipse cx="256.557" cy="81.685" rx="11.304" ry="11.304" transform="matrix(.923 -.385 .385 .923 -11.664 105.169)"/></g><path d="m271.805 116.983c0 8.421-6.827 15.248-15.248 15.248s-15.248-6.826-15.248-15.248 6.827-24.68 15.248-24.68 15.248 16.259 15.248 24.68z" fill="#ff4155"/><circle cx="178.544" cy="182.793" fill="#ffc839" r="6.99"/><circle cx="178.544" cy="197.913" fill="#ffc839" r="9.165"/><path d="m190.906 226.531c0 6.827-5.535 12.362-12.362 12.362s-12.362-5.535-12.362-12.362 5.535-20.009 12.362-20.009 12.362 13.182 12.362 20.009z" fill="#ffc839"/><path d="m256.738 1.539h-.361c-2.828 0-5.141 2.314-5.141 5.141v42.855c0 2.828 2.313 5.141 5.141 5.141h.361c2.828 0 5.141-2.314 5.141-5.141v-42.855c0-2.827-2.313-5.141-5.141-5.141z" fill="#ffc839"/><path d="m402.435 463.404c-4.086-21.027-12.352-36.574-19.252-46.545-3.432-4.959-11.218-2.493-11.218 3.537v62.455c10.657-5.739 20.834-12.25 30.47-19.447z" fill="#f7d5b0"/><path d="m432.832 97.44c-24.261 6.931-54.925 22.674-45.444 57.313 15.145 55.331-33.183 88.331-11.557 102.038 18.539 11.75 69.772 15.912 83.702 69.703 6.134 23.689 14.943 32.151 22.882 34.208 11.964-28.866 18.583-60.507 18.583-93.701.001-65.805-25.949-125.545-68.166-169.561z" fill="#fca9d8"/><path d="m125.727 154.753c9.596-35.058-21.929-50.757-46.32-57.558-42.357 44.039-68.406 103.878-68.406 169.806 0 33.281 6.654 65.002 18.678 93.929 8.195-1.587 17.503-9.729 23.901-34.437 13.93-53.791 65.163-57.953 83.702-69.703 21.627-13.706-26.701-46.706-11.555-102.037z" fill="#fca9d8"/></g></svg>